<svg xmlns="http://www.w3.org/2000/svg" xmlns:xlink="http://www.w3.org/1999/xlink" width="19" height="19" viewBox="0 0 19 19">
  <defs>
    <clipPath id="clip-path">
      <rect width="19" height="19" fill="none"/>
    </clipPath>
  </defs>
  <g id="Web" clip-path="url(#clip-path)">
    <g id="Web-2" data-name="Web">
      <path id="패스_4" data-name="패스 4" d="M2.85,2.85A8.624,8.624,0,0,1,9.5,0a8.624,8.624,0,0,1,6.65,2.85A8.624,8.624,0,0,1,19,9.5a8.624,8.624,0,0,1-2.85,6.65A8.624,8.624,0,0,1,9.5,19a8.624,8.624,0,0,1-6.65-2.85A9.481,9.481,0,0,1,0,9.5,8.624,8.624,0,0,1,2.85,2.85ZM10.767,17.1a3.89,3.89,0,0,0,2.375-1.425A6.916,6.916,0,0,0,14.25,12.35a2.622,2.622,0,0,0-.792-1.9A2.787,2.787,0,0,0,11.4,9.5H9.817a4.623,4.623,0,0,1-1.425-.317,1.437,1.437,0,0,1-.475-1.108.823.823,0,0,1,.317-.633,1.2,1.2,0,0,1,.633-.317,1.081,1.081,0,0,1,.792.475c.317.158.475.317.633.317a.952.952,0,0,0,.633-.158.952.952,0,0,0,.158-.633,2.52,2.52,0,0,0-.792-1.583,6.549,6.549,0,0,0,.792-3.008.341.341,0,0,0-.317-.317A4.895,4.895,0,0,0,9.5,1.9,7.92,7.92,0,0,0,5.383,3.167,3.986,3.986,0,0,0,3.958,6.333,4.054,4.054,0,0,0,5.225,9.342a4.326,4.326,0,0,0,3.008,1.267h0v.633a2.033,2.033,0,0,0,.633,1.583,2.306,2.306,0,0,0,1.425.95v2.85c0,.158,0,.158.158.317S10.608,17.1,10.767,17.1Z" fill="#fff"/>
    </g>
  </g>
</svg>
